<?xml version="1.0" standalone="no"?>
<!DOCTYPE svg PUBLIC "-//W3C//DTD SVG 20010904//EN"
 "http://www.w3.org/TR/2001/REC-SVG-20010904/DTD/svg10.dtd">
<svg version="1.0" xmlns="http://www.w3.org/2000/svg"
 width="1000.000000pt" height="1000.000000pt" viewBox="0 0 1000.000000 1000.000000"
 preserveAspectRatio="xMidYMid meet">

<g transform="translate(0.000000,1000.000000) scale(0.100000,-0.100000)"
fill="#000000" stroke="none">
<path d="M4788 6758 l-3 -323 -657 -3 -658 -2 0 -330 0 -330 -330 0 -330 0 0
-335 0 -335 -279 0 c-201 0 -282 -3 -287 -12 -4 -6 -9 -122 -11 -257 -2 -135
-5 -246 -7 -248 -7 -7 -147 27 -211 52 -81 30 -124 55 -187 107 l-48 39 0 -33
c0 -94 -106 -169 -321 -225 l-104 -28 446 -3 446 -2 18 -88 c39 -199 137 -436
248 -602 199 -296 473 -527 800 -673 310 -138 587 -195 987 -204 816 -18 1583
187 2170 580 352 236 618 505 869 880 l72 107 607 1 607 0 -85 24 c-235 65
-340 135 -343 229 l-1 34 -55 -43 c-64 -51 -179 -106 -266 -129 -87 -23 -272
-40 -346 -32 l-64 7 75 152 c42 84 88 180 102 215 l27 62 108 0 c222 0 416 53
576 156 125 81 189 152 273 305 l46 83 -24 17 c-47 37 -185 99 -263 120 -111
29 -318 37 -441 15 -50 -8 -98 -18 -107 -22 -12 -4 -18 2 -22 23 -53 255 -188
465 -415 645 l-75 60 -53 -58 c-62 -69 -123 -187 -154 -300 -30 -109 -33 -383
-4 -489 20 -76 82 -217 116 -265 l22 -31 -75 -34 c-41 -19 -115 -48 -164 -64
-171 -57 -217 -63 -510 -68 l-273 -5 0 336 0 336 -330 0 -330 0 0 655 0 655
-390 0 -390 0 -2 -322z m672 -63 l0 -285 -285 0 -285 0 0 285 0 285 285 0 285
0 0 -285z m-1320 -660 l0 -285 -280 0 -280 0 0 285 0 285 280 0 280 0 0 -285z
m660 0 l0 -285 -285 0 -285 0 0 285 0 285 285 0 285 0 0 -285z m655 0 l0 -280
-277 -3 -278 -2 0 285 0 285 278 -2 277 -3 0 -280z m2000 113 c176 -182 255
-349 255 -537 0 -46 4 -81 10 -81 5 0 43 11 83 25 217 73 438 71 637 -4 90
-34 89 -31 40 -106 -140 -215 -434 -336 -789 -323 l-95 3 -42 -100 c-59 -144
-89 -207 -152 -321 -47 -86 -58 -101 -76 -97 -67 15 -181 59 -231 88 l-57 35
-34 -30 c-118 -103 -319 -146 -649 -137 -343 9 -624 79 -715 179 l-27 30 -29
-28 c-124 -116 -342 -184 -593 -184 -250 0 -440 55 -577 166 l-56 46 -15 -22
c-69 -99 -371 -177 -720 -187 -331 -10 -539 34 -657 137 -21 19 -37 27 -41 20
-10 -16 -133 -76 -195 -94 -76 -23 -231 -46 -312 -46 l-66 0 -7 86 c-8 97 -2
300 9 311 4 5 1001 10 2214 14 l2207 5 97 22 c109 25 277 82 352 119 63 31
176 105 176 116 0 4 -20 32 -45 63 -183 224 -207 627 -55 892 25 43 34 51 48
43 10 -5 58 -51 107 -103z m-3975 -768 l0 -280 -280 0 -280 0 0 280 0 280 280
0 280 0 0 -280z m660 -5 l0 -285 -282 2 -283 3 -3 270 c-1 148 0 275 3 282 3
10 68 13 285 13 l280 0 0 -285z m660 5 l0 -280 -280 0 -280 0 0 280 0 280 280
0 280 0 0 -280z m660 -5 l0 -285 -285 0 -285 0 0 285 0 285 285 0 285 0 0
-285z m660 5 l0 -280 -280 0 -280 0 0 280 0 280 280 0 280 0 0 -280z m-1929
-1230 c61 -32 81 -71 77 -152 -3 -61 -7 -71 -38 -103 -59 -61 -141 -71 -216
-24 -40 24 -74 86 -74 134 0 63 51 136 110 158 34 12 103 6 141 -13z m-340
-482 c94 -161 155 -245 238 -328 98 -99 178 -158 333 -246 l109 -62 -58 -8
c-81 -10 -434 11 -583 36 -374 62 -657 185 -940 411 -117 93 -212 180 -205
187 2 3 119 4 258 3 280 -3 485 14 672 53 61 13 115 24 122 25 7 0 31 -32 54
-71z"/>
<path d="M4034 4086 c-73 -73 -26 -186 77 -186 64 0 109 45 109 110 0 28 -1
29 -25 18 -21 -9 -28 -8 -46 8 -16 14 -19 26 -14 51 6 32 5 33 -31 33 -28 0
-44 -8 -70 -34z"/>
</g>
</svg>
