<?xml version="1.0" standalone="no"?>
<!DOCTYPE svg PUBLIC "-//W3C//DTD SVG 20010904//EN"
 "http://www.w3.org/TR/2001/REC-SVG-20010904/DTD/svg10.dtd">
<svg version="1.0" xmlns="http://www.w3.org/2000/svg"
 width="225.000000pt" height="225.000000pt" viewBox="0 0 225.000000 225.000000"
 preserveAspectRatio="xMidYMid meet">

<g transform="translate(0.000000,225.000000) scale(0.100000,-0.100000)"
fill="#000000" stroke="none">
<path d="M1460 1700 c0 -177 -2 -198 -20 -227 -11 -18 -23 -33 -27 -33 -5 0
-16 -7 -26 -15 -18 -13 -16 -18 36 -107 30 -51 84 -142 119 -203 l65 -110 141
-5 c122 -4 144 -8 169 -26 49 -37 53 -54 53 -270 0 -189 -1 -203 -21 -228 -42
-53 -58 -56 -316 -56 -338 0 -333 -4 -333 290 0 198 7 233 54 264 15 9 44 20
65 24 l38 7 -120 203 -120 203 -95 -3 -94 -3 -117 -200 -117 -200 37 -7 c51
-9 84 -33 103 -73 13 -26 16 -70 16 -217 0 -293 4 -290 -347 -286 l-243 3 99
-100 c54 -55 145 -148 201 -208 l103 -107 712 0 c687 0 714 1 736 19 l24 19 3
524 3 523 -223 230 c-122 127 -297 307 -390 400 l-168 170 0 -195z"/>
</g>
</svg>
