<?xml version="1.0" standalone="no"?>
<!DOCTYPE svg PUBLIC "-//W3C//DTD SVG 20010904//EN"
 "http://www.w3.org/TR/2001/REC-SVG-20010904/DTD/svg10.dtd">
<svg version="1.0" xmlns="http://www.w3.org/2000/svg"
 width="550.000000pt" height="1024.000000pt" viewBox="0 0 550.000000 1024.000000"
 preserveAspectRatio="xMidYMid meet">

<g transform="translate(0.000000,1024.000000) scale(0.100000,-0.100000)"
fill="#000000" stroke="none">
<path d="M3453 10218 c4 -10 14 -68 23 -130 33 -223 -1 -432 -101 -633 -119
-239 -287 -417 -725 -766 -360 -287 -369 -295 -503 -427 -117 -115 -212 -234
-254 -315 -139 -275 -69 -549 240 -937 67 -83 582 -600 598 -600 17 0 -54 121
-180 305 -230 339 -272 410 -320 541 -113 311 -31 592 261 900 69 73 125 121
356 314 671 558 925 1138 702 1605 -28 59 -108 177 -97 143z"/>
<path d="M4120 8741 c-837 -279 -1326 -684 -1357 -1125 -16 -231 66 -425 318
-751 82 -106 110 -172 117 -277 8 -125 -43 -254 -151 -383 -45 -53 -43 -52 48
8 380 254 528 553 406 821 -16 35 -67 117 -113 183 -190 267 -233 361 -232
503 0 143 61 257 224 421 162 163 407 343 757 555 85 52 149 94 142 94 -8 -1
-79 -22 -159 -49z"/>
<path d="M4615 6426 c-99 -20 -177 -51 -210 -86 l-29 -31 41 15 c82 29 187 41
254 28 143 -26 272 -120 331 -240 43 -87 50 -198 20 -299 -63 -204 -281 -429
-602 -618 -173 -103 -196 -118 -183 -122 19 -7 329 100 435 148 331 153 538
336 618 546 126 333 -117 651 -510 668 -57 3 -123 -1 -165 -9z"/>
<path d="M1655 6354 c-208 -28 -430 -86 -625 -164 -209 -83 -310 -147 -310
-196 0 -199 1312 -300 2396 -184 352 38 756 113 824 153 19 11 89 49 155 84
66 35 111 62 100 59 -51 -14 -672 -97 -855 -115 -429 -43 -676 -55 -1175 -55
-336 -1 -513 3 -590 12 -240 29 -347 64 -353 115 -8 71 163 155 533 262 l150
44 -75 -1 c-41 0 -120 -6 -175 -14z"/>
<path d="M1545 5534 c-237 -98 -316 -195 -235 -287 140 -160 750 -261 1387
-229 447 23 941 100 1231 193 l33 11 -61 29 c-67 32 -141 79 -182 117 l-28 25
-152 -26 c-619 -108 -1076 -128 -1638 -72 -169 17 -226 29 -281 56 -75 37 -85
83 -35 157 19 29 32 52 28 52 -4 -1 -34 -12 -67 -26z"/>
<path d="M1679 4756 c-130 -56 -189 -111 -189 -174 0 -109 154 -204 445 -276
458 -113 1056 -96 1560 46 111 31 237 73 309 103 l39 16 -74 33 c-41 17 -127
59 -191 93 l-116 60 -69 -13 c-132 -26 -399 -63 -533 -75 -311 -27 -944 16
-1053 72 -37 19 -67 51 -67 72 0 10 9 32 21 48 27 38 14 37 -82 -5z"/>
<path d="M866 4270 c-293 -62 -553 -176 -659 -289 -38 -41 -47 -57 -47 -86 0
-20 5 -45 10 -55 14 -26 88 -68 159 -90 168 -53 746 -127 1331 -172 226 -18
1269 -18 1485 0 551 44 966 108 1309 202 367 101 566 216 566 329 0 24 -46 79
-88 103 l-29 18 19 -40 c26 -51 12 -96 -43 -144 -151 -129 -697 -228 -1579
-287 -255 -17 -1169 -23 -1430 -10 -544 28 -952 89 -1162 173 -156 63 -152
118 12 202 122 63 315 118 470 134 l75 8 -40 12 c-61 18 -256 14 -359 -8z"/>
<path d="M5267 3810 c-431 -357 -2172 -576 -3612 -455 -166 14 -484 50 -530
60 -11 3 0 -5 25 -17 146 -69 487 -126 960 -160 238 -17 1151 -17 1375 0 546
42 935 100 1220 184 356 104 568 245 615 407 5 17 8 31 7 30 -1 0 -28 -22 -60
-49z"/>
<path d="M350 1771 c0 -1019 -4 -1137 -40 -1254 -33 -103 -156 -244 -266 -303
-19 -11 -32 -24 -29 -31 2 -7 37 -51 77 -97 l72 -84 55 24 c216 96 374 261
430 449 38 131 41 208 41 1262 l0 1023 -170 0 -170 0 0 -989z"/>
<path d="M1440 2203 c-115 -18 -331 -78 -391 -109 l-26 -13 21 -90 c12 -49 24
-92 27 -96 4 -3 45 5 90 19 148 44 237 58 369 59 155 0 218 -20 278 -88 51
-58 62 -100 62 -234 l0 -111 -102 0 c-322 -1 -557 -70 -692 -203 -96 -95 -136
-196 -136 -347 0 -298 193 -458 525 -437 142 10 257 55 388 154 33 24 61 42
63 40 2 -2 10 -41 16 -85 l12 -82 129 0 128 0 -3 633 -3 632 -23 64 c-56 156
-168 248 -348 286 -64 14 -316 19 -384 8z m430 -1067 l0 -193 -60 -42 c-144
-101 -283 -135 -398 -97 -165 55 -205 314 -67 434 75 66 174 90 378 91 l147 1
0 -194z"/>
<path d="M4400 2195 c-155 -26 -370 -96 -370 -120 0 -18 38 -176 43 -182 2 -2
43 8 91 21 141 41 254 59 371 60 123 0 169 -10 236 -53 74 -47 101 -112 107
-262 l5 -119 -101 0 c-455 0 -741 -136 -820 -389 -23 -76 -22 -256 2 -326 61
-172 197 -260 421 -272 171 -9 323 40 469 151 33 25 63 43 67 41 3 -3 10 -35
14 -72 4 -36 9 -72 12 -80 4 -10 35 -13 129 -13 l124 0 0 609 c0 362 -4 630
-10 661 -17 88 -57 164 -119 223 -107 101 -227 138 -450 136 -80 -1 -180 -7
-221 -14z m480 -1054 l0 -189 -37 -30 c-109 -85 -224 -132 -326 -132 -162 0
-248 88 -248 254 0 84 14 126 60 178 64 74 185 106 404 107 l147 1 0 -189z"/>
<path d="M2400 2184 c0 -5 440 -1442 481 -1571 l11 -33 202 0 203 0 13 28
c180 384 347 904 445 1380 19 95 35 180 35 188 0 12 -29 14 -170 14 -104 0
-170 -4 -170 -10 0 -32 -66 -390 -96 -520 -60 -257 -202 -731 -223 -744 -4 -3
-20 52 -36 122 -24 110 -142 505 -301 1010 l-45 142 -174 0 c-96 0 -175 -3
-175 -6z"/>
<path d="M5258 2170 c19 -8 22 -17 22 -60 0 -27 5 -50 10 -50 6 0 10 24 10 54
0 49 2 55 23 59 12 2 -3 5 -33 5 -42 1 -50 -1 -32 -8z"/>
<path d="M5360 2120 c0 -33 4 -60 10 -60 6 0 10 21 10 46 0 53 14 51 31 -7 7
-22 17 -38 23 -36 5 2 17 23 25 48 l16 44 3 -47 c4 -69 22 -59 22 12 0 74 -21
82 -50 18 l-18 -43 -18 43 c-11 28 -23 42 -36 42 -15 0 -18 -8 -18 -60z"/>
</g>
</svg>
