<?xml version="1.0" standalone="no"?>
<!DOCTYPE svg PUBLIC "-//W3C//DTD SVG 20010904//EN"
 "http://www.w3.org/TR/2001/REC-SVG-20010904/DTD/svg10.dtd">
<svg version="1.0" xmlns="http://www.w3.org/2000/svg"
 width="225.000000pt" height="225.000000pt" viewBox="0 0 225.000000 225.000000"
 preserveAspectRatio="xMidYMid meet">

<g transform="translate(0.000000,225.000000) scale(0.100000,-0.100000)"
fill="#000000" stroke="none">
<path d="M340 1946 c0 -2 47 -127 104 -279 l103 -276 -103 -538 c-57 -296
-104 -541 -104 -545 0 -5 53 -8 119 -8 l118 0 136 353 c75 193 175 451 221
572 47 121 85 215 86 209 0 -6 -45 -258 -100 -559 -55 -302 -100 -555 -100
-562 0 -10 27 -13 118 -13 l117 0 220 620 c120 340 221 618 222 616 2 -1 -44
-280 -101 -620 l-103 -617 121 3 120 3 144 440 c78 242 180 555 226 696 l83
257 -227 126 -227 126 -117 0 c-64 0 -116 -2 -116 -5 0 -3 45 -75 100 -160 55
-85 97 -155 95 -155 -2 0 -102 72 -222 160 l-217 160 -118 0 c-65 0 -118 -2
-118 -5 0 -3 38 -81 84 -173 46 -92 91 -185 100 -207 l17 -40 -53 51 c-29 28
-129 123 -221 212 l-169 162 -119 0 c-65 0 -119 -2 -119 -4z"/>
</g>
</svg>
