<?xml version="1.0" standalone="no"?>
<!DOCTYPE svg PUBLIC "-//W3C//DTD SVG 20010904//EN"
 "http://www.w3.org/TR/2001/REC-SVG-20010904/DTD/svg10.dtd">
<svg version="1.0" xmlns="http://www.w3.org/2000/svg"
 width="186.000000pt" height="186.000000pt" viewBox="0 0 186.000000 186.000000"
 preserveAspectRatio="xMidYMid meet">

<g transform="translate(0.000000,186.000000) scale(0.100000,-0.100000)"
fill="#000000" stroke="none">
<path d="M425 1610 c-3 -6 1 -7 9 -4 18 7 21 14 7 14 -6 0 -13 -4 -16 -10z"/>
<path d="M1297 1484 c-3 -3 -19 -7 -34 -8 -82 -6 -171 -98 -194 -201 -40 -181
143 -346 331 -295 39 11 42 13 27 25 -9 7 -17 17 -17 24 0 6 -5 11 -11 11 -6
0 -9 7 -5 15 5 15 -9 21 -18 7 -8 -13 -96 -1 -96 13 0 7 -16 22 -35 34 -20 11
-38 29 -41 38 -4 10 -12 32 -20 50 -16 35 -13 118 5 136 6 6 11 19 11 29 0 10
5 18 10 18 6 0 10 6 10 14 0 13 14 20 93 45 34 11 58 10 141 -5 10 -2 27 -11
38 -20 14 -14 16 -20 6 -26 -8 -6 -5 -7 10 -3 12 4 21 3 20 -2 -4 -16 14 -53
23 -48 5 4 9 -3 9 -14 0 -11 5 -23 10 -26 13 -8 13 8 -1 39 -7 14 -17 23 -22
19 -6 -4 -8 0 -4 10 9 24 -75 94 -136 112 -52 16 -99 19 -110 9z m60 -20 c-3
-3 -12 -4 -19 -1 -8 3 -5 6 6 6 11 1 17 -2 13 -5z"/>
<path d="M342 1450 c0 -14 2 -19 5 -12 2 6 2 18 0 25 -3 6 -5 1 -5 -13z"/>
<path d="M331 1404 c0 -11 3 -14 6 -6 3 7 2 16 -1 19 -3 4 -6 -2 -5 -13z"/>
<path d="M331 1364 c0 -11 3 -14 6 -6 3 7 2 16 -1 19 -3 4 -6 -2 -5 -13z"/>
<path d="M351 1314 c0 -11 3 -14 6 -6 3 7 2 16 -1 19 -3 4 -6 -2 -5 -13z"/>
<path d="M360 1251 c0 -5 5 -13 10 -16 6 -3 10 -2 10 4 0 5 -4 13 -10 16 -5 3
-10 2 -10 -4z"/>
<path d="M380 1201 c0 -4 11 -18 25 -31 14 -13 25 -18 25 -11 0 6 -7 14 -15
17 -8 4 -13 10 -10 14 3 4 -2 10 -10 14 -8 3 -15 2 -15 -3z"/>
<path d="M459 1117 c29 -32 28 -31 28 -12 0 8 -3 13 -5 10 -3 -3 -15 3 -26 12
-15 13 -14 10 3 -10z"/>
<path d="M663 1033 c9 -2 25 -2 35 0 9 3 1 5 -18 5 -19 0 -27 -2 -17 -5z"/>
<path d="M878 1010 c-69 -12 -150 -52 -203 -101 -47 -43 -111 -127 -103 -135
2 -2 19 1 37 6 97 28 196 -128 194 -305 -1 -116 -38 -185 -99 -185 -56 0 -22
-34 80 -80 104 -47 223 -39 360 23 152 70 249 263 217 434 -32 174 -154 303
-319 338 -73 16 -94 17 -164 5z"/>
</g>
</svg>
