<?xml version="1.0" standalone="no"?>
<!DOCTYPE svg PUBLIC "-//W3C//DTD SVG 20010904//EN"
 "http://www.w3.org/TR/2001/REC-SVG-20010904/DTD/svg10.dtd">
<svg version="1.0" xmlns="http://www.w3.org/2000/svg"
 width="2113.000000pt" height="1106.000000pt" viewBox="0 0 2113.000000 1106.000000"
 preserveAspectRatio="xMidYMid meet">

<g transform="translate(0.000000,1106.000000) scale(0.100000,-0.100000)"
fill="#000000" stroke="none">
<path d="M10345 10014 c-11 -2 -443 -47 -960 -99 -517 -52 -1345 -135 -1840
-185 -495 -50 -1138 -115 -1428 -144 -414 -42 -532 -57 -544 -69 -15 -14 -8
-249 71 -2514 47 -1374 89 -2534 92 -2579 l6 -81 1125 -1069 c620 -588 1506
-1430 1971 -1872 587 -557 852 -802 867 -802 12 0 1018 465 2236 1033 1218
569 2525 1179 2906 1356 381 178 698 329 704 337 9 11 5 218 -20 912 -17 493
-65 1859 -106 3035 -45 1271 -79 2147 -85 2158 -6 10 -21 21 -33 24 -16 3
-4698 537 -4907 559 -19 2 -44 2 -55 0z m420 -159 c215 -24 548 -62 740 -84
544 -62 1881 -215 2505 -286 311 -36 612 -70 670 -77 58 -6 111 -14 118 -18 7
-3 -81 -20 -195 -38 -188 -28 -483 -74 -2123 -328 -267 -41 -730 -113 -1030
-159 -300 -46 -867 -134 -1260 -194 -393 -61 -726 -112 -740 -113 -23 -1 -344
80 -1840 467 -261 68 -619 160 -795 205 -755 194 -840 218 -815 224 14 3 252
28 530 56 1068 106 3823 385 3840 389 3 0 181 -19 395 -44z m-4585 -585 c256
-66 596 -154 755 -195 160 -41 376 -96 480 -123 105 -27 316 -82 470 -121 154
-40 471 -122 705 -182 234 -61 504 -131 600 -155 96 -25 178 -49 181 -52 3 -4
36 -880 73 -1947 37 -1067 96 -2766 132 -3775 35 -1009 63 -1853 62 -1874 l-3
-40 -130 125 c-71 68 -571 542 -1110 1054 -539 511 -1032 979 -1095 1040 -63
60 -200 191 -305 290 -104 100 -285 271 -400 380 -116 110 -331 314 -478 454
l-267 254 0 58 c0 53 -57 1691 -140 4040 -36 1009 -34 902 -12 895 9 -3 226
-60 482 -126z"/>
<path d="M6565 8500 c-218 -34 -432 -178 -573 -387 -72 -106 -72 -98 8 -138
38 -19 73 -35 78 -35 5 0 30 31 56 70 26 38 76 98 111 132 204 202 450 241
728 114 41 -18 110 -58 153 -87 159 -106 248 -190 637 -601 291 -309 456 -408
648 -395 116 8 206 54 312 160 73 73 187 222 187 244 0 4 -32 28 -71 52 -61
37 -73 42 -80 28 -5 -8 -35 -51 -67 -94 -151 -203 -280 -258 -433 -186 -102
48 -177 112 -377 321 -418 439 -529 540 -720 655 -200 120 -419 174 -597 147z"/>
<path d="M6510 7816 c-174 -43 -332 -144 -456 -294 -54 -66 -130 -180 -123
-186 9 -8 126 -65 141 -68 10 -2 33 23 67 74 178 266 457 374 728 283 232 -78
413 -217 749 -576 423 -451 541 -537 747 -547 97 -4 170 15 252 66 92 57 308
312 290 342 -3 5 -36 27 -72 49 l-67 40 -40 -62 c-66 -101 -172 -206 -241
-238 -125 -60 -227 -25 -423 143 -46 39 -100 90 -120 113 -20 23 -121 131
-224 241 -268 286 -425 418 -618 518 -163 84 -249 108 -405 112 -86 2 -149 -1
-185 -10z"/>
<path d="M6515 7144 c-87 -19 -222 -81 -292 -135 -105 -79 -225 -216 -274
-311 l-18 -36 75 -36 c42 -20 77 -36 79 -36 1 0 22 30 46 68 55 85 167 197
244 242 99 58 176 79 290 80 122 0 210 -22 333 -84 187 -95 344 -225 588 -490
324 -349 456 -468 597 -535 195 -93 381 -49 556 130 57 59 153 187 166 222 4
9 -15 27 -60 56 -36 22 -70 41 -74 41 -5 0 -28 -30 -52 -67 -60 -92 -162 -193
-228 -226 -100 -50 -201 -31 -331 61 -70 50 -211 189 -496 487 -258 271 -404
389 -597 483 -181 89 -393 122 -552 86z"/>
</g>
</svg>
